<svg xmlns="http://www.w3.org/2000/svg" width="24" height="24" viewBox="0 0 24 24" fill="none">
  <path fill-rule="evenodd" clip-rule="evenodd"
    d="M12.3193 2.04177C14.9805 1.91921 17.7186 2.86794 19.2894 4.88745C23.2876 10.0281 19.4207 17.0014 14 17.0014C12.7127 17.0014 11.7014 16.7187 10.9326 16.2107C10.6371 16.0154 10.3892 15.7946 10.1819 15.5594L8.41697 21.2955C8.25455 21.8234 7.69497 22.1196 7.16711 21.9572C6.63924 21.7948 6.34299 21.2352 6.50541 20.7073L10.5054 7.70732C10.6678 7.17946 11.2274 6.88321 11.7553 7.04563C12.2832 7.20805 12.5794 7.76763 12.417 8.2955L11.2058 12.2317C11.2036 12.2473 11.2009 12.267 11.1981 12.2905C11.1888 12.3701 11.1784 12.4898 11.177 12.6357C11.1742 12.9345 11.2099 13.3038 11.3396 13.6532C11.4649 13.9904 11.6743 14.3036 12.0352 14.542C12.4014 14.784 13.0033 15.0014 14 15.0014C17.7154 15.0014 20.7124 9.9747 17.7106 6.11534C16.6407 4.7397 14.6094 3.93842 12.4113 4.03965C10.2374 4.13977 8.08493 5.11851 6.79319 7.05612C5.95325 8.31604 5.87675 9.51869 6.12255 10.4279C6.38508 11.3991 6.96936 11.9327 7.33302 12.0487C7.8592 12.2165 8.14973 12.779 7.98194 13.3052C7.81415 13.8314 7.25158 14.1219 6.7254 13.9541C5.5211 13.5701 4.57136 12.3537 4.19185 10.9499C3.79561 9.48411 3.96906 7.68677 5.12909 5.94672C6.83739 3.38428 9.63398 2.16544 12.3193 2.04177Z"
    fill="currentColor" />
</svg>