<svg xmlns="http://www.w3.org/2000/svg" width="24" height="24" viewBox="0 0 24 24" fill="none">
  <path
    d="M9.00019 21.1C6.60019 21.1 4.10019 20.5 2.10019 19.4C1.70019 19.2 1.50019 18.8 1.60019 18.3C1.70019 17.9 2.00019 17.5 2.50019 17.5C4.20019 17.3 5.50019 17 6.70019 16.4C3.80019 14.2 2.30019 10.2 2.50019 5C2.50019 4.6 2.80019 4.2 3.10019 4.1C3.50019 3.9 3.90019 4 4.20019 4.3C6.20019 6.3 8.60019 8.4 10.9002 8.2C10.9002 7.2 11.0002 5.6 11.9002 4.5C12.7002 3.5 13.9002 3 15.4002 3C17.1002 3 18.2002 4.1 18.8002 4.8L21.1002 4C21.5002 3.9 22.0002 4 22.2002 4.3C22.5002 4.6 22.5002 5.1 22.2002 5.5L20.4002 8.2C20.6002 9.4 20.8002 13 18.1002 16.6C15.9002 19.8 12.4002 21.1 9.00019 21.1ZM6.10019 18.7C9.90019 19.6 14.1002 18.9 16.7002 15.4C19.4002 11.9 18.6002 8.4 18.5002 8.2C18.4002 7.9 18.5002 7.6 18.6002 7.4L19.0002 6.8L18.8002 6.9C18.3002 7.1 17.8002 6.8 17.6002 6.4C17.6002 6.4 16.8002 5 15.5002 5C14.6002 5 13.9002 5.2 13.5002 5.8C12.8002 6.7 12.9002 8.3 13.0002 8.9C13.1002 9.4 12.8002 9.9 12.3002 10C9.40019 11 6.50019 9.1 4.50019 7.4C4.80019 10.6 5.80019 14 9.00019 15.6C9.30019 15.8 9.50019 16.1 9.50019 16.4C9.50019 16.8 9.30019 17.1 9.00019 17.3C8.10019 17.9 7.10019 18.4 6.10019 18.7Z"
    fill="currentColor" />
</svg>