<svg width="24" height="24" viewBox="0 0 24 24" fill="none" xmlns="http://www.w3.org/2000/svg">
    <path fill-rule="evenodd" clip-rule="evenodd"
        d="M3.70711 2.29289C3.31658 1.90237 2.68342 1.90237 2.29289 2.29289C1.90237 2.68342 1.90237 3.31658 2.29289 3.70711L5.78262 7.19683C4.23805 8.41451 3.19493 9.8777 2.60186 10.8666C2.17959 11.5708 2.17959 12.4292 2.60186 13.1334C3.79014 15.1148 6.78504 19 12.0001 19C13.7429 19 15.2378 18.5661 16.5001 17.9143L20.2929 21.7071C20.6834 22.0976 21.3166 22.0976 21.7071 21.7071C22.0976 21.3166 22.0976 20.6834 21.7071 20.2929L18.2174 16.8032C18.2177 16.803 18.2181 16.8027 18.2184 16.8025L16.7919 15.376C16.7916 15.3762 16.7912 15.3765 16.7909 15.3767L14.7076 13.2934C14.7078 13.2931 14.708 13.2927 14.7081 13.2924L10.7077 9.29187C10.7073 9.29204 10.7069 9.29221 10.7066 9.29238L9.0067 7.59248C9.00709 7.59232 9.00747 7.59216 9.00786 7.592L7.50103 6.08517C7.50067 6.08535 7.50031 6.08554 7.49994 6.08573L3.70711 2.29289ZM7.20913 8.62334C5.84265 9.64166 4.89103 10.9382 4.31706 11.8953C4.29201 11.937 4.28516 11.9722 4.28516 12C4.28516 12.0278 4.29201 12.063 4.31706 12.1047C5.41349 13.933 7.88801 17 12.0001 17C13.1169 17 14.1129 16.7738 14.9933 16.4076L13.2934 14.7076C12.9018 14.8951 12.4632 15 12 15C10.3431 15 9 13.6569 9 12C9 11.5369 9.10495 11.0982 9.29238 10.7066L7.20913 8.62334ZM18.2678 14.0235C18.8757 13.3503 19.3449 12.6686 19.6831 12.1047C19.7081 12.063 19.715 12.0278 19.715 12C19.715 11.9722 19.7081 11.937 19.6831 11.8953C18.5866 10.067 16.1121 7 12.0001 7C11.753 7 11.5119 7.01107 11.2766 7.03228L9.54823 5.30394C10.3036 5.11058 11.1203 5 12.0001 5C17.2151 5 20.21 8.88521 21.3983 10.8666C21.8205 11.5708 21.8205 12.4292 21.3983 13.1334C21.0169 13.7693 20.4495 14.6013 19.6823 15.438L18.2678 14.0235Z"
        fill="currentColor" />
</svg>