<svg width="24" height="24" viewBox="0 0 24 24" fill="none" xmlns="http://www.w3.org/2000/svg">
    <path fill-rule="evenodd" clip-rule="evenodd"
        d="M19.6829 12.1047C18.5865 13.933 16.112 17 11.9999 17C7.88789 17 5.41337 13.933 4.31694 12.1047C4.29189 12.063 4.28503 12.0278 4.28503 12C4.28503 11.9722 4.29189 11.937 4.31694 11.8953C5.41337 10.067 7.88789 7 11.9999 7C16.112 7 18.5865 10.067 19.6829 11.8953C19.708 11.937 19.7149 11.9722 19.7149 12C19.7149 12.0278 19.708 12.063 19.6829 12.1047ZM11.9999 19C17.215 19 20.2099 15.1148 21.3982 13.1334C21.8204 12.4292 21.8204 11.5708 21.3982 10.8666C20.2099 8.88521 17.215 5 11.9999 5C6.78492 5 3.79002 8.88521 2.60173 10.8666C2.17947 11.5708 2.17947 12.4292 2.60173 13.1334C3.79002 15.1148 6.78492 19 11.9999 19ZM13 12C13 12.5523 12.5523 13 12 13C11.4477 13 11 12.5523 11 12C11 11.4477 11.4477 11 12 11C12.5523 11 13 11.4477 13 12ZM15 12C15 13.6569 13.6569 15 12 15C10.3431 15 9 13.6569 9 12C9 10.3431 10.3431 9 12 9C13.6569 9 15 10.3431 15 12Z"
        fill="currentColor" />
</svg>